<svg xmlns="http://www.w3.org/2000/svg" viewBox="0 0 1024 1024" width="1024" height="1024">
  <rect width="1024" height="1024" fill="#0A0A0A"/>
  <path d="M452.07 384.63Q487.23 384.63 487.23 444.55Q487.23 450.94 487.23 458.13L485.63 514.06Q484.83 540.43 484.83 566L496.82 746.57Q496.82 766.55 456.07 766.55Q453.67 766.55 444.48 766.55Q435.30 766.55 431.70 759.36Q428.11 752.17 430.90 741.78Q433.70 731.39 428.90 718.61Q392.15 757.76 331.43 757.76Q218.77 757.76 218.77 583.58Q218.77 486.90 255.12 437.36Q291.48 387.82 359.39 387.82Q391.35 387.82 423.31 399.01Q433.70 384.63 452.07 384.63M368.98 457.34Q323.44 457.34 301.06 483.70Q278.69 510.07 278.69 580.38Q278.69 698.63 342.61 698.63Q359.39 698.63 379.77 683.45Q400.14 668.27 408.13 649.10Q423.31 605.95 423.31 554.81Q423.31 503.68 410.93 480.51Q398.54 457.34 368.98 457.34" fill="#E8E4DF"/>
  <path d="M765.28 384.63Q800.44 384.63 800.44 444.55Q800.44 450.94 800.44 458.13L798.84 514.06Q798.04 540.43 798.04 566L810.03 746.57Q810.03 766.55 769.28 766.55Q766.88 766.55 757.69 766.55Q748.50 766.55 744.91 759.36Q741.31 752.17 744.11 741.78Q746.91 731.39 742.11 718.61Q705.36 757.76 644.63 757.76Q531.98 757.76 531.98 583.58Q531.98 486.90 568.33 437.36Q604.68 387.82 672.60 387.82Q704.56 387.82 736.52 399.01Q746.91 384.63 765.28 384.63M682.19 457.34Q636.64 457.34 614.27 483.70Q591.90 510.07 591.90 580.38Q591.90 698.63 655.82 698.63Q672.60 698.63 692.97 683.45Q713.35 668.27 721.34 649.10Q736.52 605.95 736.52 554.81Q736.52 503.68 724.13 480.51Q711.75 457.34 682.19 457.34" fill="#E8E4DF"/>
</svg>