<svg xmlns="http://www.w3.org/2000/svg" viewBox="0 0 1024 1024" width="1024" height="1024">
  <rect width="1024" height="1024" fill="#0A0A0A"/>
  <path d="M366.58 384.63Q401.74 384.63 401.74 444.55Q401.74 450.94 401.74 458.13L400.14 514.06Q399.34 540.43 399.34 566L411.33 746.57Q411.33 766.55 370.58 766.55Q368.18 766.55 358.99 766.55Q349.80 766.55 346.21 759.36Q342.61 752.17 345.41 741.78Q348.20 731.39 343.41 718.61Q306.66 757.76 245.93 757.76Q133.27 757.76 133.27 583.58Q133.27 486.90 169.63 437.36Q205.98 387.82 273.90 387.82Q305.86 387.82 337.82 399.01Q348.20 384.63 366.58 384.63M283.49 457.34Q237.94 457.34 215.57 483.70Q193.20 510.07 193.20 580.38Q193.20 698.63 257.12 698.63Q273.90 698.63 294.27 683.45Q314.65 668.27 322.64 649.10Q337.82 605.95 337.82 554.81Q337.82 503.68 325.43 480.51Q313.05 457.34 283.49 457.34" fill="#E8E4DF"/>
  <path d="M679.79 384.63Q714.95 384.63 714.95 444.55Q714.95 450.94 714.95 458.13L713.35 514.06Q712.55 540.43 712.55 566L724.53 746.57Q724.53 766.55 683.79 766.55Q681.39 766.55 672.20 766.55Q663.01 766.55 659.42 759.36Q655.82 752.17 658.62 741.78Q661.41 731.39 656.62 718.61Q619.87 757.76 559.14 757.76Q446.48 757.76 446.48 583.58Q446.48 486.90 482.84 437.36Q519.19 387.82 587.11 387.82Q619.07 387.82 651.03 399.01Q661.41 384.63 679.79 384.63M596.69 457.34Q551.15 457.34 528.78 483.70Q506.41 510.07 506.41 580.38Q506.41 698.63 570.33 698.63Q587.11 698.63 607.48 683.45Q627.86 668.27 635.85 649.10Q651.03 605.95 651.03 554.81Q651.03 503.68 638.64 480.51Q626.26 457.34 596.69 457.34" fill="#E8E4DF"/>
  <path d="M825.61 661.88Q842.79 661.88 855.57 674.66Q868.35 687.45 870.75 709.82Q870.75 727.40 857.97 742.18Q845.18 756.96 828 756.96Q810.83 756.96 797.24 747.77Q783.66 738.58 783.66 719.41Q783.66 700.23 796.04 681.06Q808.43 661.88 825.61 661.88" fill="#E5A54B"/>
</svg>